<svg fill="none" height="24" viewBox="0 0 24 24" width="24" xmlns="http://www.w3.org/2000/svg"><path d="m16 16v2.8c0 1.1201 0 1.6802-.218 2.108-.1917.3763-.4977.6823-.874.874-.4278.218-.9879.218-2.108.218h-7.6c-1.1201 0-1.68016 0-2.10798-.218-.37633-.1917-.68229-.4977-.87403-.874-.21799-.4278-.21799-.9879-.21799-2.108v-7.6c0-1.1201 0-1.68016.21799-2.10798.19174-.37633.4977-.68229.87403-.87403.42782-.21799.98788-.21799 2.10798-.21799h2.8m3.2 8h7.6c1.1201 0 1.6802 0 2.108-.218.3763-.1917.6823-.4977.874-.874.218-.4278.218-.9879.218-2.108v-7.6c0-1.1201 0-1.68016-.218-2.10798-.1917-.37633-.4977-.68229-.874-.87403-.4278-.21799-.9879-.21799-2.108-.21799h-7.6c-1.1201 0-1.68016 0-2.10798.21799-.37633.19174-.68229.4977-.87403.87403-.21799.42782-.21799.98787-.21799 2.10798v7.6c0 1.1201 0 1.6802.21799 2.108.19174.3763.4977.6823.87403.874.42782.218.98788.218 2.10798.218z" stroke="#171717" stroke-linecap="round" stroke-linejoin="round" stroke-width="2"/></svg>